<?xml version="1.0" encoding="UTF-8" standalone="no"?>

<svg
   version="1.1"
   id="svg1"
   width="138.96001"
   height="151.52"
   viewBox="0 0 138.96001 151.52"
   xmlns="http://www.w3.org/2000/svg">
  <defs
     id="defs1" />
  <g
     id="g1"
  >
    <g
       id="group-R5">
      <path
         id="path2"
         d="m 513.488,596.898 h -26.242 l 13.117,33.79 z M 921.906,284.98 c -15.07,38.536 -40.097,102.5 -68.711,175.625 C 788.66,625.582 733.496,766.586 700.527,850.836 h 38.34 V 1136.44 H 263.223 V 850.836 h 38.183 C 270.676,772.301 220.742,644.684 162.578,496.02 128.289,408.359 97.4727,329.551 80.0313,284.98 H 0 V 0.589844 H 434.348 V 284.98 h -41.133 c 1.363,4.59 2.82,9.415 4.344,14.512 0.879,2.949 1.765,5.938 2.668,8.887 h 201.472 c 0.899,-2.949 1.797,-5.957 2.676,-8.906 1.531,-5.098 2.98,-9.922 4.348,-14.493 H 566.992 V 0.589844 H 1001.87 V 284.98 h -79.964"
         style="fill:#0c0a08;fill-opacity:1;fill-rule:nonzero;stroke:none"
         transform="matrix(0.13333333,0,0,-0.13333333,0,151.52)" />
      <path
         id="path3"
         d="m 534.609,582.457 h -68.488 l 34.242,88.125 z M 912.051,270.547 C 897.539,307.598 870.684,376.25 839.602,455.703 771.652,629.41 711.563,782.992 679.355,865.277 h 45.059 V 1122.01 H 277.676 V 865.277 h 44.902 C 293.066,789.867 239.824,653.824 176.926,493.008 140.02,398.652 106.66,313.438 89.8828,270.547 H 14.4531 V 15.0586 H 419.895 V 270.547 h -46.106 c 2.852,9.492 6.133,20.449 9.922,33.066 1.894,6.367 3.887,12.989 5.762,19.219 h 222.988 c 1.875,-6.23 3.848,-12.852 5.754,-19.199 3.789,-12.637 7.078,-23.574 9.93,-33.086 H 581.438 V 15.0586 H 987.41 V 270.547 h -75.359"
         style="fill:#fcd006;fill-opacity:1;fill-rule:nonzero;stroke:none"
         transform="matrix(0.13333333,0,0,-0.13333333,0,151.52)" />
      <path
         id="path4"
         d="M 500.363,758.355 581.066,550.668 H 419.656 Z M 890.344,238.75 C 879.766,265.781 847.07,349.336 810.203,443.574 741.34,619.625 658.262,831.996 632.773,897.066 h 59.864 V 1090.2 H 309.465 V 897.066 H 369.16 C 345.547,836.762 272.336,649.645 206.465,481.23 162.344,368.477 123.301,268.711 111.582,238.75 H 46.25 V 46.8203 H 388.105 V 238.75 h -57.128 c 4.628,15.176 11.875,39.238 22.285,74.004 4.746,15.859 9.609,32.09 12.558,41.855 h 270.274 c 3.008,-9.902 7.832,-26.074 12.578,-41.836 10.402,-34.785 17.656,-58.847 22.277,-74.023 H 613.234 V 46.8203 H 955.625 V 238.75 h -65.281"
         style="fill:#0c0a08;fill-opacity:1;fill-rule:nonzero;stroke:none"
         transform="matrix(0.13333333,0,0,-0.13333333,0,151.52)" />
      <path
         id="path5"
         d="M 941.16,61.2891 H 627.676 V 224.277 c 0,0 55.957,0 63,0 -2.863,7.168 -42.59,141.485 -43.938,144.805 -3.758,0 -287.785,0 -291.55,0 -1.34,-3.32 -41.067,-137.637 -43.938,-144.805 7.129,0 62.41,0 62.41,0 V 61.2891 H 60.7031 V 224.277 c 0,0 57.1489,0 60.7419,0 1.407,3.536 265.832,679.567 268.899,687.262 -7.383,0 -66.438,0 -66.438,0 V 1075.76 H 678.184 V 911.539 c 0,0 -59.239,0 -66.59,0 3.074,-7.695 267.488,-683.726 268.894,-687.262 3.614,0 60.672,0 60.672,0 z M 398.535,536.207 H 602.188 L 500.363,798.258 Z"
         style="fill:#ffffff;fill-opacity:1;fill-rule:nonzero;stroke:none"
         transform="matrix(0.13333333,0,0,-0.13333333,0,151.52)" />
      <path
         id="path6"
         d="m 734.59,433.223 c 0,0 -5.684,-11.368 -9.219,-15.625 0,0 3.535,-8.516 8.859,-5.313 5.34,3.203 4.266,13.496 0.36,20.938 z m -69.348,4.785 c 2.258,2.695 8.852,11.055 10.512,18.027 2.019,8.418 1.473,15.352 -1.086,16.992 -2.551,1.661 -8.406,-3.476 -9.336,-23.75 -0.176,-4.004 -0.184,-7.773 -0.09,-11.269 z m -31.597,0 c 2.253,2.695 8.855,11.055 10.515,18.027 2.024,8.418 1.465,15.352 -1.074,16.992 -2.59,1.661 -8.43,-3.476 -9.344,-23.75 -0.187,-4.004 -0.195,-7.773 -0.097,-11.269 z m -92.551,25.586 c -5.496,2.441 -7.754,-2.09 -10.176,-17.774 -2.422,-15.683 0.969,-22.949 3.699,-22.285 2.754,0.625 5.168,5.332 5.024,11.133 -0.149,5.82 1.453,28.926 1.453,28.926 z m -163.34,-9.531 c -2.645,1.289 -6.57,0 -6.57,-7.676 0,-7.657 0,-13.125 0,-17.227 0,-4.121 7.07,-16.133 7.918,-1.933 1.101,18.066 0.832,25.722 -1.348,26.836 z m 369.609,2.246 c 0,-5.684 -0.34,-25.215 -0.34,-34.454 0,-9.238 -2.128,-19.16 -9.601,-19.16 -7.442,0 -14.199,6.035 -14.199,6.035 0,0 -11.707,-3.535 -17.395,1.055 -5.672,4.629 -7.086,11.387 -5.32,23.438 1.769,12.07 1.769,12.07 1.769,12.07 l -3.535,1.074 c 0,0 -4.992,-30.879 -20.176,-39.414 -3.703,-2.07 -16.144,-4.355 -22.179,12.207 -2.141,-3.066 -5.157,-7.031 -7.657,-9.023 -3.027,-2.403 -14.89,-5.84 -21.894,6.23 -9.356,-9.883 -18.484,-5.508 -21.25,1.738 -3.066,8.028 -2.129,19.161 -1.895,26.25 0.247,7.129 -7.332,2.618 -7.57,-1.171 -0.23,-3.789 -0.933,-13.477 -2.359,-26.036 -0.981,-8.496 -2.844,-11.132 -6.399,-9.003 -2.226,1.328 -3.797,3.496 -4.726,7.636 -2.645,-2.558 -6.824,-5.566 -11.621,-5.176 -4.004,0.293 -6.465,3.008 -8.047,6.719 -10.137,-5.488 -18.645,-0.898 -18.645,-0.898 0,0 -10.828,-11.504 -17.144,-4.551 -1.543,1.738 -3.149,4.746 -4.328,9.102 -1.465,-2.911 -4.747,-8.614 -9.579,-11.192 -6.613,-3.555 -11.601,-0.234 -15.617,9.727 -0.742,1.836 -1.25,4.297 -1.59,7.109 -10.168,-13.652 -20.988,-12.578 -23.988,-4.766 -3.062,8.067 -2.117,19.2 -1.883,26.309 0.235,7.07 -7.343,2.598 -7.578,-1.191 -0.234,-3.789 -0.945,-13.516 -2.363,-26.055 -0.969,-8.457 -2.832,-11.133 -6.395,-8.984 -2.257,1.328 -3.839,3.574 -4.765,7.812 -3.02,-3.125 -8.684,-8.066 -14.836,-8.535 -4.199,-0.293 -7.168,3.144 -8.887,7.754 -3.125,-3.36 -7.695,-7.461 -11.211,-7.363 -7.937,0.293 -10.957,9.609 -10.957,15.351 0,2.266 0,8.613 0,15.899 -1.277,-1.641 -3.308,-3.829 -5.469,-4.688 -2.382,-0.898 -4.929,-1.621 -8.211,-1.074 0,-2.891 0,-5.996 0,-9.297 0,-14.238 -5.753,-20 -15.605,-15.332 -5.371,2.519 -8.254,7.344 -9.816,11.934 -1.133,-4.512 -4.395,-14.141 -11.524,-14.141 -9.316,0 -13.418,11.777 -13.418,26.016 0,14.218 0,30.117 0,34.785 0,4.629 -2.461,9.004 -6.57,2.715 -4.113,-6.309 -4.942,-9.551 -4.942,-14.239 0,-4.629 0,-29.023 0,-35.293 0,-6.308 -3.828,-10.683 -10.128,-10.683 -6.297,0 -7.657,3.535 -7.657,14.238 0,10.664 0,32.832 0,37.754 0,4.941 -3.027,13.144 -6.843,4.394 -3.84,-8.769 -5.754,-16.171 -5.754,-22.461 0,-6.308 0,-20.234 0,-24.355 0,-4.121 -0.547,-10.156 -6.844,-10.156 -6.289,0 -9.582,3.047 -9.582,15.644 0,12.559 0,23.008 0,35.86 0,12.851 1.652,19.433 -0.547,20.527 -2.188,1.074 -6.023,-1.387 -21.355,-16.172 l -5.469,6.035 c 0,0 21.902,18.614 29.844,24.918 7.937,6.297 19.976,5.469 21.621,-5.758 0,0 6.336,8.61 12.324,9.313 9.305,1.074 10.39,-17.516 10.39,-17.516 0,0 6.493,8.399 11.778,15.328 7.117,9.317 15.594,6.825 15.594,-5.742 0,-12.613 -1.915,-46.832 -2.442,-57.769 -0.508,-9.961 5.09,-16.719 10.235,-8.164 -0.293,1.836 -0.403,3.437 -0.403,4.609 0,4.648 0,4.941 0,26.543 0,21.66 14.172,22.852 19.184,20.254 6.824,-3.555 7.929,-11.231 7.929,-19.961 0,-12.07 4.227,-14.102 7.383,-11.777 2.672,1.953 4.824,4.297 6.297,6.074 0,7.5 0,14.277 0,17.187 0,7.403 5.742,7.403 8.223,4.922 2.734,-2.754 1.914,-5.488 1.914,-10.39 0,-4.942 0,-21.641 0,-32.852 0,-11.23 3.555,-12.598 6.308,-11.23 1.563,0.8 3.028,3.378 4.012,5.449 -0.367,9.629 0.442,35.488 1.985,41.914 1.671,6.855 5.539,8.008 8.203,6.074 3.007,-2.187 2.207,-6.875 1.933,-10.996 -0.285,-4.141 -1.64,-11.797 -2.734,-25.195 -1.094,-13.418 0.664,-19.219 5.762,-18.34 3.046,0.527 7.421,6.836 9.375,9.844 0.039,10.859 1.679,26.054 2.609,35.488 1.18,12.07 6.082,11.855 9.219,10.176 3.074,-1.68 2.84,-9.453 2.84,-9.453 0,0 6.164,7.558 11.601,11.113 5.449,3.535 7.11,-0.488 6.875,-6.406 -0.242,-5.899 -0.711,-22.266 -0.711,-33.125 0,-10.899 2.598,-12.09 6.863,-9.004 3.692,2.675 7.208,9.961 8.067,11.836 0.187,9.043 0.859,18.593 1.086,25.468 -3.891,-0.058 -7.641,-0.175 -9.863,-0.351 -5.207,-0.508 -3.555,4.004 0.234,4.238 3.238,0.215 6.191,1.406 9.773,1.758 0.391,11.933 1.582,22.594 1.582,30.191 0,8.282 4.825,6.61 7.813,5.196 4.031,-1.895 3.555,-4.004 2.598,-11.368 -0.418,-3.277 -1.278,-12.769 -2.09,-23.765 3.164,0.097 4.121,0 7.773,-1.074 5.684,-1.661 0,-4.707 -4.492,-4.707 -0.906,0 -2.227,0 -3.68,-0.02 -0.84,-11.934 -1.535,-24.648 -1.535,-32.91 0,-17.52 6.406,-17.285 9.953,-13.477 3.563,3.77 4.969,9.688 4.969,9.688 l 1.973,-4.063 c -1.024,7.071 -1.075,16.289 0.859,27.871 4.043,24.063 14.074,23.75 17.141,22.618 3.074,-1.133 5.976,-4.688 7.597,-7.129 1.629,-2.403 5.504,-4.18 5.504,-4.18 1.938,-0.82 0.969,-2.617 0.149,-7.285 -0.801,-4.688 -1.778,-15.215 -2.578,-23.457 -0.809,-8.242 1.925,-12.442 4.855,-12.11 1.805,0.196 4.102,1.563 5.594,2.598 -0.84,7.402 -0.586,20.664 -0.586,31.68 0,12.441 3.398,15.683 8.398,14.843 3.098,-0.449 4.055,-5.312 3.242,-10.664 -0.8,-5.312 -1.453,-14.55 -1.796,-28.437 -0.313,-13.887 4.707,-14.707 7.128,-12.949 1.731,1.269 3.594,3.574 4.543,4.824 0,0.059 -0.011,0.098 -0.011,0.156 -0.235,10.899 1.613,27.754 2.605,37.871 1.184,12.09 6.086,11.875 9.231,10.196 3.086,-1.661 2.843,-9.473 2.843,-9.473 0,0 6.161,7.578 11.602,11.152 5.437,3.535 7.098,-0.508 6.855,-6.406 -0.214,-5.937 -0.714,-22.285 -0.714,-33.145 0,-10.878 2.246,-15.722 6.496,-12.656 0.957,0.703 1.882,1.68 2.761,2.832 -1.082,4.59 -1.765,10.215 -1.765,17.266 0,25.234 11.238,42.246 23.301,36.562 11.902,-5.605 13.718,-35.273 -10.52,-51.015 1.086,-7.871 3.34,-12.949 7.043,-13.496 5.32,-0.762 9.383,4.687 13.113,11.132 -0.918,4.61 -1.484,10.079 -1.484,16.817 0,25.234 11.379,42.246 23.457,36.562 11.887,-5.605 12.402,-34.765 -10.535,-51.015 1.094,-7.871 3.308,-13.496 7.051,-13.496 4.414,0 12.578,6.406 17.546,24.511 4.969,18.125 5.684,28.418 5.684,31.25 0,2.852 2.129,3.204 5.324,0.723 3.192,-2.461 6.746,-4.238 9.219,-4.238 2.508,0 4.266,-2.168 2.859,-8.887 -1.425,-6.777 -4.629,-24.531 -4.961,-31.621 -0.371,-7.109 4.961,-14.551 12.762,-2.5 7.817,12.09 10.996,35.527 13.488,43.34 2.481,7.793 4.629,7.793 6.758,6.035 2.121,-1.777 0,-3.906 2.121,-5.313 2.149,-1.425 3.543,-6.406 3.543,-12.089 z m -186.23,38.183 c 0,4.203 3.191,7.613 7.129,7.613 3.926,0 7.109,-3.41 7.109,-7.613 0,-4.179 -3.183,-7.597 -7.109,-7.597 -3.938,0 -7.129,3.418 -7.129,7.597"
         style="fill:#0c0a08;fill-opacity:1;fill-rule:nonzero;stroke:none"
         transform="matrix(0.13333333,0,0,-0.13333333,0,151.52)" />
    </g>
  </g>
</svg>
