<svg xmlns="http://www.w3.org/2000/svg" viewBox="0 0 24 24">
  <path d="M12 3a9 9 0 0 0-2.85 17.54c.45.08.62-.2.62-.44v-1.52c-2.53.56-3.06-1.08-3.06-1.08-.41-1.04-1-1.32-1-1.32-.82-.56.06-.55.06-.55.91.06 1.39.93 1.39.93.81 1.39 2.13.99 2.64.76.08-.58.32-.99.58-1.22-2.02-.23-4.14-1.01-4.14-4.48 0-.99.35-1.8.93-2.43-.09-.23-.4-1.16.09-2.42 0 0 .76-.24 2.49.93a8.7 8.7 0 0 1 4.54 0c1.73-1.17 2.49-.93 2.49-.93.49 1.26.18 2.19.09 2.42.58.63.93 1.44.93 2.43 0 3.48-2.13 4.24-4.16 4.47.33.28.62.83.62 1.68v2.49c0 .24.16.52.63.43A9 9 0 0 0 12 3z" fill="#3b82f6" />
</svg>

